<svg width="21" height="20" viewBox="0 0 21 20" fill="none" xmlns="http://www.w3.org/2000/svg">
<path d="M10.6669 0C9.35364 0 8.05328 0.258658 6.84002 0.761205C5.62677 1.26375 4.52438 2.00035 3.59579 2.92893C1.72043 4.8043 0.666858 7.34784 0.666858 10C0.658116 12.3091 1.45765 14.5485 2.92686 16.33L0.926858 18.33C0.788101 18.4706 0.694104 18.6492 0.65673 18.8432C0.619356 19.0372 0.640279 19.2379 0.716858 19.42C0.799916 19.5999 0.934562 19.7511 1.1037 19.8544C1.27285 19.9577 1.46886 20.0083 1.66686 20H10.6669C13.319 20 15.8626 18.9464 17.7379 17.0711C19.6133 15.1957 20.6669 12.6522 20.6669 10C20.6669 7.34784 19.6133 4.8043 17.7379 2.92893C15.8626 1.05357 13.319 0 10.6669 0ZM10.6669 18H4.07686L5.00686 17.07C5.19311 16.8826 5.29765 16.6292 5.29765 16.365C5.29765 16.1008 5.19311 15.8474 5.00686 15.66C3.69744 14.352 2.88203 12.6305 2.69955 10.7888C2.51707 8.94705 2.9788 7.09901 4.00609 5.55952C5.03337 4.02004 6.56265 2.88436 8.33337 2.34597C10.1041 1.80759 12.0067 1.8998 13.7171 2.60691C15.4274 3.31402 16.8397 4.59227 17.7133 6.22389C18.5869 7.85551 18.8677 9.73954 18.508 11.555C18.1482 13.3705 17.1702 15.005 15.7404 16.1802C14.3106 17.3554 12.5176 17.9985 10.6669 18Z" fill="#EEE4BA"/>
</svg>
