<svg width="21" height="20" viewBox="0 0 21 20" fill="none" xmlns="http://www.w3.org/2000/svg">
<path d="M20.605 7.23411C20.5418 7.0512 20.4269 6.89054 20.2743 6.77161C20.1216 6.65269 19.9378 6.58061 19.745 6.56411L14.055 5.73411L11.505 0.56411C11.4231 0.395039 11.2952 0.252452 11.136 0.152683C10.9769 0.052915 10.7928 0 10.605 0C10.4171 0 10.233 0.052915 10.0739 0.152683C9.91469 0.252452 9.78684 0.395039 9.70496 0.56411L7.15496 5.72411L1.46496 6.56411C1.27988 6.59042 1.10588 6.66807 0.962708 6.78827C0.819534 6.90846 0.712918 7.06638 0.654958 7.24411C0.601903 7.41778 0.597142 7.60263 0.641186 7.7788C0.685229 7.95498 0.776416 8.11584 0.904958 8.24411L5.03496 12.2441L4.03496 17.9241C3.99458 18.1125 4.00951 18.3086 4.07794 18.4887C4.14637 18.6689 4.26539 18.8254 4.42069 18.9395C4.57598 19.0536 4.76093 19.1204 4.95329 19.1319C5.14564 19.1433 5.33722 19.099 5.50496 19.0041L10.605 16.3341L15.705 19.0041C15.8453 19.0833 16.0038 19.1246 16.165 19.1241C16.3768 19.1249 16.5834 19.0583 16.755 18.9341C16.9101 18.823 17.0302 18.6698 17.1011 18.4926C17.172 18.3154 17.1907 18.1216 17.155 17.9341L16.155 12.2541L20.285 8.25411C20.4293 8.13179 20.5361 7.97101 20.5927 7.79046C20.6493 7.6099 20.6536 7.41698 20.605 7.23411ZM14.455 11.2341C14.3392 11.3465 14.2524 11.4853 14.2019 11.6385C14.1514 11.7917 14.1387 11.9549 14.165 12.1141L14.885 16.3141L11.125 14.3141C10.9788 14.2418 10.818 14.2042 10.655 14.2042C10.4919 14.2042 10.3311 14.2418 10.185 14.3141L6.42496 16.3141L7.14496 12.1141C7.1712 11.9549 7.15853 11.7917 7.10803 11.6385C7.05753 11.4853 6.9707 11.3465 6.85496 11.2341L3.85496 8.23411L8.06496 7.62411C8.22696 7.60158 8.38096 7.53965 8.51346 7.44376C8.64596 7.34787 8.75292 7.22095 8.82496 7.07411L10.605 3.26411L12.485 7.08411C12.557 7.23095 12.664 7.35787 12.7965 7.45376C12.929 7.54965 13.083 7.61158 13.245 7.63411L17.455 8.24411L14.455 11.2341Z" fill="#EEE4BA"/>
</svg>
