<svg width="16" height="17" viewBox="0 0 16 17" fill="none" xmlns="http://www.w3.org/2000/svg">
<path d="M4.8 13.3C3.92 13.3 3.208 14.02 3.208 14.9C3.208 15.78 3.92 16.5 4.8 16.5C5.68 16.5 6.4 15.78 6.4 14.9C6.4 14.02 5.68 13.3 4.8 13.3ZM0 0.5V2.1H1.6L4.48 8.172L3.4 10.132C3.272 10.356 3.2 10.62 3.2 10.9C3.2 11.78 3.92 12.5 4.8 12.5H14.4V10.9H5.136C5.024 10.9 4.936 10.812 4.936 10.7L4.96 10.604L5.68 9.3H11.64C12.24 9.3 12.768 8.972 13.04 8.476L15.904 3.284C15.968 3.172 16 3.036 16 2.9C16 2.46 15.64 2.1 15.2 2.1H3.368L2.616 0.5H0ZM12.8 13.3C11.92 13.3 11.208 14.02 11.208 14.9C11.208 15.78 11.92 16.5 12.8 16.5C13.68 16.5 14.4 15.78 14.4 14.9C14.4 14.02 13.68 13.3 12.8 13.3Z" fill="#EEE4BA"/>
</svg>
